<?xml version="1.0" encoding="UTF-8" standalone="no"?>
<svg
   width="864.04498"
   height="150.04028"
   viewBox="0 0 864.04498 150.04028"
   fill="none"
   version="1.1"
   id="svg30"
   sodipodi:docname="Vietjet Air Logo.svg"
   inkscape:version="1.1 (c68e22c387, 2021-05-23)"
   xmlns:inkscape="http://www.inkscape.org/namespaces/inkscape"
   xmlns:sodipodi="http://sodipodi.sourceforge.net/DTD/sodipodi-0.dtd"
   xmlns="http://www.w3.org/2000/svg"
   xmlns:svg="http://www.w3.org/2000/svg">
  <defs
     id="defs34" />
  <sodipodi:namedview
     id="namedview32"
     pagecolor="#ffffff"
     bordercolor="#666666"
     borderopacity="1.0"
     inkscape:pageshadow="2"
     inkscape:pageopacity="0.0"
     inkscape:pagecheckerboard="0"
     showgrid="false"
     inkscape:zoom="0.62554348"
     inkscape:cx="304.53519"
     inkscape:cy="141.47698"
     inkscape:window-width="1920"
     inkscape:window-height="1002"
     inkscape:window-x="-8"
     inkscape:window-y="-8"
     inkscape:window-maximized="1"
     inkscape:current-layer="svg30" />
  <path
     d="m 207.003,75.038331 h -55.09725 c -0.5145,11.4237 4.11975,19.8672 18.0225,19.8672 9.78375,0 19.5675,-2.97975 24.71625,-4.9665 l 2.57475,16.390499 c -7.7235,3.477 -19.56675,6.45675 -33.47025,6.45675 -23.6865,0 -37.58925,-12.913499 -37.58925,-34.767749 0,-13.410675 4.63425,-28.311375 12.873,-38.741775 8.754,-12.417225 22.65675,-19.867575 39.6495,-19.867575 20.5965,0 32.4405,11.42385 32.4405,31.788075 0,4.966875 -1.545,15.894 -4.11975,23.841075 z m -31.41075,-40.2318 c -7.7235,0 -14.418,4.966875 -19.05225,13.90725 -2.0595,3.9735 -2.0595,4.966875 -3.6045,9.4371 h 32.4405 c 0.51525,-2.4834 1.545,-6.953625 1.545,-9.93375 0.5145,-8.940375 -3.6045,-13.4106 -11.32875,-13.4106 z"
     fill="#e12127"
     id="path2"
     style="stroke-width:7.5" />
  <path
     d="M 36.04478,137.62028 H 11.32837 L 0,21.892056 H 26.77612 L 31.41045,100.36853 69,21.892056 h 27.291 z"
     fill="#e12127"
     id="path4"
     style="stroke-width:7.5" />
  <path
     d="m 265.704,38.780556 h -14.418 l -10.29825,47.185725 c -0.5145,1.4895 -2.0595,9.4365 6.69375,9.93375 2.57475,0 6.17925,-0.49725 7.72425,-0.99375 0,0 -4.11975,18.377249 -23.172,18.377249 -14.41725,0 -21.11175,-10.43025 -18.02175,-26.324249 L 231.71925,7.985856 c 0,0 9.78375,-10.430497 28.32075,-7.45036504 C 256.95075,15.436131 255.40575,21.893106 255.40575,21.893106 h 14.418 z"
     fill="#e12127"
     id="path6"
     style="stroke-width:7.5" />
  <path
     d="m 444.8985,38.779581 h -14.418 l -10.29825,47.1852 c -0.51525,1.49025 -2.0595,9.43725 6.69375,9.93375 2.57475,0 6.17925,-0.4965 7.72425,-0.993 0,0 -4.11975,18.377249 -23.172,18.377249 -14.418,0 -21.11175,-10.43025 -18.0225,-26.324249 L 410.3985,8.978256 c 0,0 9.78375,-10.430467 28.32075,-7.450335 C 435.63,16.428606 434.085,22.885506 434.085,22.885506 h 14.418 z"
     fill="#e12127"
     id="path8"
     style="stroke-width:7.5" />
  <path
     d="M 386.19525,75.038331 H 331.098 c -0.51525,11.4237 4.11975,19.8672 18.0225,19.8672 9.78375,0 19.56675,-2.97975 24.71625,-4.9665 l 2.57475,16.390499 c -7.72425,3.477 -19.5675,6.45675 -33.47025,6.45675 -23.6865,0 -37.07475,-12.913499 -37.07475,-34.767749 0,-13.410675 4.63425,-28.311375 12.3585,-38.741775 9.2685,-12.417225 22.65675,-19.867575 39.6495,-19.867575 20.5965,0 32.43975,11.42385 32.43975,31.788075 0,4.966875 -1.54425,15.894 -4.119,23.841075 z m -31.41075,-40.2318 c -7.7235,0 -14.418,4.966875 -19.05225,13.90725 -2.0595,3.9735 -2.0595,4.966875 -3.6045,9.4371 h 32.4405 c 0.5145,-2.4834 1.545,-6.953625 1.545,-9.93375 0.5145,-8.940375 -4.11975,-13.4106 -11.32875,-13.4106 z"
     fill="#e12127"
     id="path10"
     style="stroke-width:7.5" />
  <path
     d="m 639.02325,38.781606 c -6.17925,-2.4834 -13.38825,-2.4834 -18.0225,-0.49665 l -15.963,73.509824 H 578.262 l 19.05225,-84.933674 c 11.328,-5.96025 31.92525,-9.4371 47.8875,-6.456975 z"
     fill="#e12127"
     id="path12"
     style="stroke-width:7.5" />
  <path
     d="m 509.2575,137.62028 0.51525,-25.82775 h -36.5595 L 458.28,137.62028 h -26.26125 l 72.09,-115.728224 h 27.291 L 536.034,137.62028 Z m 1.02975,-89.900399 -27.8055,47.68215 h 27.291 z"
     fill="#e12127"
     id="path14"
     style="stroke-width:7.5" />
  <path
     d="m 240.46875,150.04028 c -23.6865,0 -37.074,-14.901 -35.0145,-30.795 11.84325,12.91425 33.98475,13.41075 46.85775,1.98675 4.635,-3.9735 8.754,-10.43025 11.84325,-25.827749 5.66475,-26.324475 15.963,-74.00655 15.963,-74.00655 h 26.7765 L 288.357,105.83453 c -5.664,27.318 -23.6865,44.20575 -47.88825,44.20575 z"
     fill="#e12127"
     id="path16"
     style="stroke-width:7.5" />
  <path
     d="M 108.13125,111.79253 H 81.87 l 19.5675,-89.900474 h 26.26125 z"
     fill="#e12127"
     id="path18"
     style="stroke-width:7.5" />
  <path
     d="m 566.41725,111.79253 h -26.7765 l 19.5675,-89.900474 H 585.984 Z"
     fill="#e12127"
     id="path20"
     style="stroke-width:7.5" />
  <path
     d="m 627.177,112.78553 c -4.63425,0 -7.7235,-2.97975 -7.7235,-6.95325 0,-5.46375 5.14875,-10.430999 10.81275,-10.430999 4.635,0 7.72425,2.9805 7.72425,6.953999 0.51525,5.46375 -5.1495,10.43025 -10.8135,10.43025 z"
     fill="#e12127"
     id="path22"
     style="stroke-width:7.5" />
  <path
     d="m 694.12125,58.152456 c -1.545,-0.993375 -4.119,-2.4834 -7.209,-2.4834 -5.14875,0 -9.78375,2.980125 -13.3875,8.940375 -3.6045,5.4636 -5.66475,14.4036 -5.66475,20.8611 0,8.4435 3.6045,12.417 9.2685,12.417 3.6045,0 7.209,-0.993 9.26925,-2.48325 l 1.54425,11.920499 c -3.08925,2.97975 -9.2685,4.9665 -17.50725,4.9665 -13.38825,0 -23.17125,-9.93375 -23.17125,-25.827749 0,-9.93375 4.119,-21.8541 9.783,-29.8011 6.6945,-9.4371 16.99275,-13.907325 26.7765,-13.907325 7.7235,0 14.418,2.980125 16.4775,4.966875 z"
     fill="#e12127"
     id="path24"
     style="stroke-width:7.5" />
  <path
     d="m 746.1255,97.885281 c -6.17925,8.940749 -16.4775,14.900999 -29.35125,14.900999 -16.4775,0 -24.71625,-9.93375 -24.71625,-24.834749 0,-9.93375 3.6045,-21.854325 9.2685,-29.801325 6.6945,-9.4371 16.47825,-14.9007 29.35125,-14.9007 16.4775,0 25.23225,9.93375 25.23225,24.337725 0,9.93405 -4.1175,22.35105 -9.7845,30.29805 z m -16.99275,-42.7152 c -5.1495,0 -9.2685,3.9735 -11.84325,9.93375 -3.08925,6.456975 -5.664,17.88045 -5.664,24.83445 0,5.96025 1.545,9.43725 7.209,9.43725 5.664,0 9.2685,-3.477 11.84325,-9.43725 3.08925,-6.45675 5.664,-17.880825 5.664,-24.83445 0,-5.96025 -2.0595,-9.93375 -7.209,-9.93375 z"
     fill="#e12127"
     id="path26"
     style="stroke-width:7.5" />
  <path
     d="m 861.9825,65.103831 -9.78,46.688699 h -20.085 L 842.415,64.110456 c 0,-0.993375 0.5175,-1.4901 0.5175,-2.483475 0,-3.9735 -2.5725,-6.4569 -8.2425,-6.4569 -3.6,0 -7.2075,1.490025 -9.78,3.476775 L 813.585,111.79253 H 793.5 l 10.2975,-47.682074 c 0,-0.993375 0.5175,-1.4901 0.5175,-2.483475 0,-3.9735 -3.09,-6.4569 -9.27,-6.4569 -3.09,0 -6.18,0.49665 -8.7525,1.490025 L 774.45,111.79253 H 754.365 L 768.27,48.216381 c 8.235,-3.476775 18.0225,-4.966875 29.3475,-4.966875 9.27,0 16.995,2.980125 20.085,6.953625 4.635,-3.476775 13.3875,-6.953625 25.23,-6.953625 14.415,0 21.1125,6.953625 21.1125,16.88745 -1.545,1.98675 -1.545,3.476775 -2.0625,4.966875 z"
     fill="#e12127"
     id="path28"
     style="stroke-width:7.5" />
</svg>
